# xmcd CD database file
#
# Track frame offsets:
#	150
#	29133
#	53557
#	80914
#	122315
#	140750
#	154890
#	184976
#	214716
#	232216
#
# Disc length: 3483 seconds
#
# Revision: 0
# Processed by: cddbd v1.4PL0 Copyright (c) Steve Scherf et al.
# Submitted via: CDex 1.50
#
DISCID=940d990a
DTITLE=Kora Jazz Trio - Kora Jazz Trio
DYEAR=2003
DGENRE=Jazz
TTITLE0=Tabou
TTITLE1=N'dyaba
TTITLE2=Senef
TTITLE3=Miriya
TTITLE4=Now is the time
TTITLE5=Goree
TTITLE6=N'dimi
TTITLE7=Mimi
TTITLE8=Matamani
TTITLE9=Nina
EXTD=YEAR: 2003
EXTT0=
EXTT1=
EXTT2=
EXTT3=
EXTT4=
EXTT5=
EXTT6=
EXTT7=
EXTT8=
EXTT9=
PLAYORDER=
